<svg xmlns="http://www.w3.org/2000/svg" fill="#61A1F8" style="background: white" viewBox="-1 -1 13 13">
    <rect x="0" y="0" width="5" height="1"/>
    <rect x="0" y="0" width="1" height="5"/>
    <rect x="6" y="0" width="5" height="1"/>
    <rect x="6" y="0" width="1" height="5"/>
    <rect x="0" y="6" width="5" height="1"/>
    <rect x="0" y="6" width="1" height="5"/>
    <rect x="4" y="0" width="1" height="5"/>
    <rect x="0" y="4" width="5" height="1"/>
    <rect x="4" y="6" width="1" height="5"/>
    <rect x="6" y="4" width="5" height="1"/>
    <rect x="10" y="0" width="1" height="5"/>
    <rect x="0" y="10" width="5" height="1"/>
    <rect x="2" y="2" width="1" height="1"/>
    <rect x="8" y="2" width="1" height="1"/>
    <rect x="2" y="8" width="1" height="1"/>
    <rect x="6" y="6" width="1" height="1"/>
    <rect x="8" y="6" width="1" height="1"/>
    <rect x="10" y="6" width="1" height="1"/>
    <rect x="6" y="8" width="1" height="1"/>
    <rect x="8" y="8" width="1" height="1"/>
    <rect x="10" y="8" width="1" height="1"/>
    <rect x="6" y="10" width="1" height="1"/>
    <rect x="8" y="10" width="1" height="1"/>
    <rect x="10" y="10" width="1" height="1"/>
    <rect x="7" y="7" width="1" height="1"/>
    <rect x="9" y="7" width="1" height="1"/>
    <rect x="7" y="9" width="1" height="1"/>
    <rect x="9" y="9" width="1" height="1"/>
</svg>
